<?xml version="1.0"?>
<svg xmlns="http://www.w3.org/2000/svg" xmlns:xlink="http://www.w3.org/1999/xlink" version="1.1" id="Capa_1" x="0px" y="0px" viewBox="0 0 56 56" style="enable-background:new 0 0 56 56;" xml:space="preserve" width="512px" height="512px"><g><g>
	<g>
		<rect x="10.5" y="25.603" width="4" height="2" data-original="#010002" class="active-path" data-old_color="#010002" fill="#AEB5C7"/>
		<path d="M54.5,28.603h-47v-3.364c0.572-0.379,2.119-0.849,2.73-0.849c0.194,0,0.377,0.099,0.485,0.213    h3.079c-0.104-1.758-1.686-3.213-3.564-3.213c-0.681,0-5.73,0.735-5.73,3.479v3.734h-3c-0.829,0-1.5,0.672-1.5,1.5    s0.671,1.5,1.5,1.5h53c0.828,0,1.5-0.672,1.5-1.5S55.328,28.603,54.5,28.603z" data-original="#010002" class="active-path" data-old_color="#010002" fill="#AEB5C7"/>
		<path d="M0.255,33.417c0,0,1.984,0.715,3.129,4.644c0.753,2.584-0.861,7.748,6.087,10.982    c-0.001,0.023-0.005,0.055-0.006,0.077l-0.159,3.318c-0.027,0.551,0.329,0.758,0.795,0.461l2.794-1.781    c0.246-0.157,0.564-0.385,0.841-0.641c3.167,0.771,7.346,1.279,12.884,1.386l-0.082,0.024c0.396,0,0.762-0.009,1.146-0.013    c0.384,0.004,0.75,0.013,1.146,0.013l-0.111-0.024c5.671-0.106,9.937-0.635,13.159-1.434c0.287,0.274,0.626,0.522,0.887,0.688    l2.795,1.781c0.465,0.297,0.821,0.09,0.795-0.461l-0.16-3.318c-0.002-0.049-0.009-0.112-0.012-0.167    c6.84-3.238,5.422-8.332,6.168-10.893c1.146-3.929,2.885-4.644,2.885-4.644L27.5,33.238L0.255,33.417z" data-original="#010002" class="active-path" data-old_color="#010002" fill="#AEB5C7"/>
		<path d="M19.301,18.026c0.263,0.184,0.562,0.298,0.885,0.298c0.854,0,1.564-0.735,1.758-1.721h-1.408    C20.35,17.216,19.865,17.725,19.301,18.026z" data-original="#010002" class="active-path" data-old_color="#010002" fill="#AEB5C7"/>
		<path d="M20.56,15.603h1.4c-0.174-1.02-0.901-1.785-1.774-1.785c-0.324,0-0.623,0.114-0.886,0.298    C19.883,14.429,20.389,14.962,20.56,15.603z" data-original="#010002" class="active-path" data-old_color="#010002" fill="#AEB5C7"/>
		<path d="M19.931,19.821c2.067,0,3.749-1.682,3.749-3.749s-1.682-3.749-3.749-3.749    s-3.749,1.682-3.749,3.749S17.864,19.821,19.931,19.821z M18.351,13.83c0.448-0.317,0.991-0.507,1.581-0.507    c1.355,0,2.478,0.988,2.702,2.28c0.026,0.153,0.047,0.308,0.047,0.469c0,0.182-0.02,0.359-0.054,0.531    c-0.249,1.262-1.362,2.218-2.695,2.218c-0.59,0-1.134-0.191-1.583-0.509c-0.703-0.498-1.167-1.314-1.167-2.24    C17.182,15.145,17.646,14.328,18.351,13.83z" data-original="#010002" class="active-path" data-old_color="#010002" fill="#AEB5C7"/>
		<path d="M33.465,21.603h-1.447c-0.158,0.833-0.872,1.51-1.643,1.783c0.245,0.083,0.505,0.137,0.779,0.137    C32.33,23.523,33.296,22.688,33.465,21.603z" data-original="#010002" class="active-path" data-old_color="#010002" fill="#AEB5C7"/>
		<path d="M31.92,20.603h1.464c-0.298-0.916-1.178-1.586-2.229-1.586c-0.274,0-0.533,0.054-0.777,0.137    C31.04,19.389,31.658,19.925,31.92,20.603z" data-original="#010002" class="active-path" data-old_color="#010002" fill="#AEB5C7"/>
		<path d="M31.366,25.019h0.002c2.067,0,3.749-1.682,3.749-3.749s-1.682-3.749-3.749-3.749    s-3.749,1.682-3.749,3.749S29.3,25.019,31.366,25.019z M29.786,19.029c0.448-0.318,0.992-0.508,1.582-0.508    c1.284,0,2.357,0.889,2.657,2.082c0.055,0.215,0.092,0.436,0.092,0.667c0,0.114-0.021,0.223-0.034,0.333    c-0.166,1.357-1.314,2.416-2.717,2.416c-0.59,0-1.134-0.191-1.582-0.509c-0.702-0.499-1.165-1.315-1.165-2.24    C28.619,20.344,29.083,19.528,29.786,19.029z" data-original="#010002" class="active-path" data-old_color="#010002" fill="#AEB5C7"/>
		<path d="M39.583,6.714c0-0.038-0.007-0.073-0.009-0.111h-1.29c0.003,0.038,0.015,0.073,0.015,0.111    c0,0.848-0.61,1.578-1.338,1.962c0.254,0.18,0.542,0.292,0.854,0.292C38.791,8.967,39.583,7.958,39.583,6.714z" data-original="#010002" class="active-path" data-old_color="#010002" fill="#AEB5C7"/>
		<path d="M37.926,5.603h1.419c-0.305-0.679-0.872-1.142-1.53-1.142c-0.311,0-0.599,0.111-0.853,0.291    C37.341,4.952,37.681,5.245,37.926,5.603z" data-original="#010002" class="active-path" data-old_color="#010002" fill="#AEB5C7"/>
		<path d="M37.605,10.463c2.067,0,3.75-1.682,3.75-3.749s-1.683-3.749-3.75-3.749    c-2.066,0-3.748,1.682-3.748,3.749S35.539,10.463,37.605,10.463z M36.024,4.473c0.447-0.317,0.991-0.508,1.581-0.508    c1.12,0,2.083,0.675,2.511,1.638c0.137,0.308,0.214,0.646,0.228,1c0.002,0.038,0.012,0.073,0.012,0.111    c0,1.516-1.233,2.749-2.75,2.749c-0.59,0-1.135-0.191-1.582-0.509c-0.703-0.499-1.166-1.315-1.166-2.24    C34.857,5.788,35.32,4.971,36.024,4.473z" data-original="#010002" class="active-path" data-old_color="#010002" fill="#AEB5C7"/>
	</g>
</g></g> </svg>
