<?xml version="1.0" standalone="no"?><!DOCTYPE svg PUBLIC "-//W3C//DTD SVG 1.1//EN" "http://www.w3.org/Graphics/SVG/1.1/DTD/svg11.dtd"><svg t="1651034809524" class="icon" viewBox="0 0 1024 1024" version="1.1" xmlns="http://www.w3.org/2000/svg" p-id="3096" width="32" height="32" xmlns:xlink="http://www.w3.org/1999/xlink"><defs><style type="text/css"></style></defs><path d="M875.157333 521.386667l74.709334-85.461334c26.090667-29.824 13.866667-67.52-24.768-76.309333L681.728 304.213333l-127.786667-214.677333c-20.288-34.069333-59.946667-34.090667-80.213333 0l-127.786667 214.677333-243.392 55.381334c-38.442667 8.746667-50.837333 46.506667-24.768 76.309333l164.394667 188.053333-22.613333 248.917334c-3.605333 39.466667 28.437333 62.805333 64.874666 47.146666l229.376-98.432-16.810666-39.210666-229.397334 98.453333c-6.698667 2.88-6.229333 3.221333-5.546666-4.096l24.256-267.093333-176.426667-201.813334c-4.757333-5.461333-4.885333-5.034667 2.133333-6.634666l261.205334-59.434667 137.173333-230.4c3.733333-6.293333 3.114667-6.293333 6.869333 0l137.152 230.4 261.205334 59.434667c7.125333 1.621333 6.954667 1.088 2.133333 6.613333l-74.709333 85.482667 32.106666 28.074666z m0 0l74.709334-85.461334c26.090667-29.824 13.866667-67.52-24.768-76.309333L681.728 304.213333l-127.786667-214.677333c-20.288-34.069333-59.946667-34.090667-80.213333 0l-127.786667 214.677333-243.392 55.381334c-38.442667 8.746667-50.837333 46.506667-24.768 76.309333l164.394667 188.053333-22.613333 248.917334c-3.605333 39.466667 28.437333 62.805333 64.874666 47.146666l229.376-98.432-16.810666-39.210666-229.397334 98.453333c-6.698667 2.88-6.229333 3.221333-5.546666-4.096l24.256-267.093333-176.426667-201.813334c-4.757333-5.461333-4.885333-5.034667 2.133333-6.634666l261.205334-59.434667 137.173333-230.4c3.733333-6.293333 3.114667-6.293333 6.869333 0l137.152 230.4 261.205334 59.434667c7.125333 1.621333 6.954667 1.088 2.133333 6.613333l-74.709333 85.482667 32.106666 28.074666z" fill="#fd5332" p-id="3097"></path><path d="M682.666667 917.333333a192 192 0 1 0 0-384 192 192 0 0 0 0 384z m0 42.666667c-129.6 0-234.666667-105.066667-234.666667-234.666667s105.066667-234.666667 234.666667-234.666666 234.666667 105.066667 234.666666 234.666666-105.066667 234.666667-234.666666 234.666667z" fill="#fd5332" p-id="3098"></path><path d="M769.429333 646.122667a21.333333 21.333333 0 0 1 29.930667 30.421333l-143.978667 141.653333a21.333333 21.333333 0 0 1-30.037333-0.106666l-64.426667-64.426667a21.333333 21.333333 0 0 1 30.165334-30.186667l49.472 49.472 128.853333-126.826666z" fill="#fd5332" p-id="3099"></path></svg>